<?xml version="1.0" encoding="utf-8"?>
<!-- Generator: Adobe Illustrator 19.2.1, SVG Export Plug-In . SVG Version: 6.00 Build 0)  -->
<svg version="1.1" id="Layer_1" xmlns="http://www.w3.org/2000/svg" xmlns:xlink="http://www.w3.org/1999/xlink" x="0px" y="0px"
	 width="1844px" height="542px" viewBox="0 0 1844 542" style="enable-background:new 0 0 1844 542;" xml:space="preserve">
<style type="text/css">
	.st0{fill:#9D9D9D;}
	.st1{fill:#009639;}
</style>
<path class="st0" d="M1151.8,269.4c6.2-35.4,19.3-66.7,37.7-92.9c5.3-29.8,9.7-48.3,17-71.7h-105.8l-2,11.3c-1.1,6-1.4,7.6-2.1,11.9
	c-25.3-22.1-52.8-31.3-92.7-31.3c-92.3,0-164.4,63.2-181.4,159.2c-17.3,98.2,31.2,159.8,125.1,159.8c41.6,0,72.6-10.8,104.5-35.6
	c-6.1,28.6-13.8,44.8-27.5,57.7c-15.7,15.6-40.3,23.8-70,23.8c-35.6,0-61-12.4-75.6-36.7l-86.8,51.3c30.5,41.5,75.8,59.9,149.2,59.9
	c54,0,101.3-11.3,134.1-31.8c42.5-26.4,68.5-70.2,79.9-135l1.2-6.7C1147.5,335.8,1145.6,304.2,1151.8,269.4 M1071.8,255.9
	c-8.4,48-46.3,82-90.5,82c-42.7,0-65.1-31.8-56.3-81.5c8.9-50.2,42.7-83.1,85.9-83.1C1054.5,173.3,1080.3,207.9,1071.8,255.9"/>
<path class="st0" d="M1467.9,337.7l-63-18.7c-6.8,14-11.6,20-21.1,27.5c-16.3,12.9-36.4,20-58,20c-42.7,0-63.9-23.2-61.6-66.9h201.5
	c0.4-9.9,1.6-20.1,3.4-30.8c6.2-34.8,18.8-65.4,36.6-91c-17.2-55.3-63.7-86-132.6-86c-103.1,0-184.1,70.7-203,177.6
	c-9.4,53.4-0.2,99.3,25.9,131.7c25.3,30.8,64.2,45.9,117.1,45.9c53.4,0,99.3-15.6,135.4-45.9c11.4-9.7,19.7-18.3,28.8-30.6
	C1473.1,360.4,1469.9,349.5,1467.9,337.7 M1359.1,172.2c37.2,0,57.2,18.3,58.6,52.9H1279C1294.5,189.5,1320.8,172.2,1359.1,172.2"/>
<path class="st0" d="M1484,268.9c19.1-108,100.2-176.5,209.2-176.5c109,0,166.1,68.5,147.2,175.4
	c-18.9,107.4-102.8,178.7-210.2,178.7C1521.8,446.4,1464.9,377.3,1484,268.9 M1587.2,268.3c-10.6,59.9,11.1,96,58.1,96
	c46.9,0,80.1-35.1,90.6-94.9c10.6-60.5-10.6-96.1-56.5-96.1C1632,173.3,1597.7,209,1587.2,268.3"/>
<path class="st1" d="M281.9,261.4c-28.8,0-38.5,0.5-56.3,2.3l15.3-81.8c20.4,2.3,33.9,2.8,73.4,2.8h45.1c28.8,0,49.7-0.4,74.9-2.3
	c-6.1,17.6-10.1,32.8-15.8,62.9l-9.7,51.8c-6.1,32.8-8.4,47.6-9,68.9c-34.1,16.2-50.4,22.2-77.1,29.1
	c-38.5,10.2-80.7,15.7-122.5,15.7c-71.6,0-124.4-16.2-158.3-49.4C5.7,326.1-7.6,271.1,4.2,207.7C27,86.2,131.3,8.9,273.4,8.9
	c70.5,0,120.7,18,151,55c12.5,14.4,18.9,28.2,23.8,50.4l-119.1,21.7c-3-16.7-8.2-25.4-19.1-33.3c-12.8-9.7-30.6-14.3-54.3-14.3
	c-72.2,0-119.8,43-134.3,120.7c-8,43-2.5,76.3,16.3,96.6c15,16.2,41,25,76.6,25c29.9,0,55.1-5.1,84.9-16.6l9.9-52.7H281.9z"/>
<path class="st1" d="M837.7,174.4c2.4-12.2,4.7-22.1,7.2-31.3c-21.5,6.5-42.5,10.8-62.5,9c-15.7-1.3-30.9-6-45.2-15.6
	c-7.1-4.8-14.1-10.8-20.7-18.3c-0.7-0.8-1.4-1.7-2.2-2.6c-8.9-0.9-16.6-1.2-26.2-1.2c-51.4,0-87.5,12.5-120.7,42l6.8-36.5H461.9
	c-0.4,19.9-2.3,36.1-8.6,69.8l-26.7,142.4c-5.7,30.1-9.9,46.7-17.6,69.8h116.7c0.8-22.2,3-39.7,8.6-69.3l13.5-72.1
	c6-20.3,11.8-30,24.6-41.1c19.5-16.6,43.1-25,71.8-25c17.5,0,31.1,2.3,55.9,8.8l33.2-64.7c-1.2,14.6-3.5,30.2-7.5,51.3L699,332.1
	c-5.6,29.6-10,47.2-17.6,69.8h117.9c0.9-19,3.6-42.7,8-66.5c-6.6-22.6-7.5-49.3-2.2-79.5C810.7,224.9,821.9,197.5,837.7,174.4"/>
<path class="st1" d="M698.8,37.6c4.2,0,8.3,0.3,12.4,0.5c4.2,0.2,8.3,0.4,12.4,0.5c8.3,0.3,16.7,0.2,25.1-0.1
	c16.9-0.6,34.3-2.7,51.8-5.4c35.1-5.7,70.6-12.6,105.9-19.3c35.4-6.5,70.1-10.9,101.6-3.7c15.7,3.7,30.6,10.2,44.4,21
	c35.2,32.1,42.2,59.2,43.2,59.6c-68.3-36.8-178.4,4.5-214.8,14.8c-36.3,10.1-72.7,20-104.3,13.4c-15.8-3.2-30.7-10-44-22.2
	c-6.7-6.1-12.9-13.6-18.8-22.6c-2.9-4.5-5.7-9.5-8.4-15C702.6,53.6,698.5,38.7,698.8,37.6"/>
</svg>
